<?xml version="1.0" standalone="no"?>
<!DOCTYPE svg PUBLIC "-//W3C//DTD SVG 20010904//EN"
 "http://www.w3.org/TR/2001/REC-SVG-20010904/DTD/svg10.dtd">
<svg version="1.0" xmlns="http://www.w3.org/2000/svg"
 width="921.000000pt" height="383.000000pt" viewBox="0 0 921.000000 383.000000"
 preserveAspectRatio="xMidYMid meet">

<g transform="translate(0.000000,383.000000) scale(0.100000,-0.100000)"
fill="#000000" stroke="none">
<path d="M7026 3465 c-4 -11 -20 -15 -56 -15 -49 0 -50 -1 -50 -30 0 -16 5
-30 10 -30 6 0 10 11 10 25 0 23 3 25 50 25 43 0 50 3 50 20 0 24 -6 26 -14 5z"/>
<path d="M7037 3337 c14 -71 -33 -113 -120 -104 -28 2 -43 1 -35 -4 7 -5 37
-9 66 -9 46 0 58 4 83 29 32 32 37 66 15 96 -13 18 -14 18 -9 -8z"/>
<path d="M6884 3343 c4 -5 27 -8 51 -8 24 0 39 3 32 7 -16 10 -93 10 -83 1z"/>
<path d="M2454 3205 c0 -60 1 -84 3 -52 2 32 2 81 0 110 -2 29 -3 3 -3 -58z"/>
<path d="M5700 2754 c-509 -283 -939 -523 -957 -532 l-31 -17 16 -32 17 -31
950 528 c523 291 954 531 959 533 11 4 -6 60 -20 63 -5 2 -425 -229 -934 -512z"/>
<path d="M2360 3250 c-13 -9 -13 -10 0 -10 8 0 22 5 30 10 13 9 13 10 0 10 -8
0 -22 -5 -30 -10z"/>
<path d="M5518 3114 c-16 -8 -28 -21 -28 -30 0 -12 4 -12 20 -4 19 10 20 8 20
-60 0 -63 -2 -70 -20 -70 -11 0 -20 -7 -20 -15 0 -13 11 -15 63 -13 59 3 82
19 37 26 -18 3 -20 11 -20 93 0 96 -3 100 -52 73z"/>
<path d="M5660 3076 l0 -55 38 -3 c34 -3 37 -6 37 -33 0 -29 -2 -30 -43 -30
-27 0 -42 -4 -42 -12 0 -27 85 -28 117 -1 18 15 16 73 -3 92 -8 9 -29 16 -45
16 -24 0 -29 4 -29 25 0 23 4 25 40 25 29 0 40 4 40 15 0 12 -13 15 -55 15
l-55 0 0 -54z"/>
<path d="M7127 3084 l-28 -15 28 -37 c15 -20 224 -289 464 -598 l436 -561 -47
-49 c-65 -68 -93 -145 -88 -244 2 -59 9 -88 31 -130 15 -29 24 -56 20 -60 -4
-4 -290 -176 -635 -383 l-626 -375 -31 48 c-30 46 -72 88 -108 108 -14 8 9
142 191 1113 114 607 208 1111 209 1119 1 11 -8 15 -33 15 l-34 0 -207 -1100
-206 -1100 -54 3 c-109 5 -201 -28 -274 -98 l-40 -39 -475 385 c-261 212 -573
464 -693 561 l-218 176 -25 -25 -25 -25 701 -567 c544 -441 700 -572 695 -584
-15 -40 -22 -121 -14 -170 17 -110 87 -203 189 -251 46 -22 69 -26 140 -26
103 0 155 21 229 90 62 58 93 127 100 225 l6 74 649 389 c539 324 652 388 665
378 83 -61 223 -79 324 -41 70 26 143 94 177 165 36 73 39 180 9 260 -28 76
-101 155 -172 186 -55 24 -165 32 -237 16 l-35 -7 -460 594 c-253 327 -462
595 -465 595 -3 0 -18 -7 -33 -15z m1173 -1388 c0 -22 -3 -24 -39 -19 -32 4
-41 2 -55 -18 -26 -37 -20 -44 32 -41 55 4 70 -7 79 -62 5 -30 1 -40 -25 -66
-58 -58 -150 -27 -153 52 -4 88 13 146 48 167 10 6 39 11 66 11 43 0 47 -2 47
-24z m-1870 -1151 c0 -69 3 -85 15 -85 8 0 15 -9 15 -20 0 -11 -7 -20 -15 -20
-9 0 -15 -9 -15 -25 0 -20 -5 -25 -25 -25 -20 0 -25 5 -25 25 0 24 -3 25 -55
25 -52 0 -55 1 -55 26 0 14 19 61 43 105 41 77 43 79 80 79 l37 0 0 -85z"/>
<path d="M8201 1571 c-17 -11 -8 -56 14 -65 29 -11 46 5 43 38 -3 33 -29 45
-57 27z"/>
<path d="M6342 520 l-33 -60 35 0 36 0 0 60 c0 33 -1 60 -3 60 -1 0 -17 -27
-35 -60z"/>
<path d="M2500 3075 c0 -11 -18 -15 -77 -18 l-78 -3 83 -2 c76 -2 82 -1 82 18
0 11 -2 20 -5 20 -3 0 -5 -7 -5 -15z"/>
<path d="M2702 3034 c-7 -14 -11 -29 -8 -31 2 -3 323 -202 713 -443 l708 -438
13 31 c7 17 9 34 5 38 -16 15 -1388 862 -1404 866 -9 3 -20 -6 -27 -23z"/>
<path d="M1689 2448 c-255 -291 -474 -542 -486 -557 l-22 -26 -38 21 c-166 92
-380 22 -459 -151 -63 -136 -31 -285 82 -384 124 -109 316 -108 433 1 l33 31
156 -107 c87 -58 317 -216 512 -349 l355 -243 -4 -77 c-4 -95 16 -159 70 -227
122 -154 365 -166 500 -23 85 89 112 210 75 343 -6 23 18 46 341 310 191 156
485 396 652 533 l303 250 -25 25 -25 25 -634 -520 c-348 -285 -639 -522 -646
-527 -7 -4 -26 8 -48 30 -21 20 -62 48 -93 63 -47 22 -70 26 -141 26 -71 0
-94 -4 -140 -26 -49 -23 -107 -73 -143 -122 -11 -17 -54 10 -519 328 l-506
346 19 50 c35 91 21 205 -36 290 l-24 36 476 544 c261 299 481 551 488 559 10
12 8 19 -14 37 l-27 22 -465 -531z m-649 -738 c22 -12 40 -68 40 -125 0 -52
-28 -107 -61 -119 -40 -14 -97 1 -116 31 -34 51 -14 199 29 216 23 9 89 7 108
-3z m1600 -1020 c35 -35 27 -82 -27 -142 l-47 -53 52 -3 c44 -3 52 -6 52 -23
0 -17 -7 -19 -85 -19 -80 0 -85 1 -85 21 0 11 20 44 45 72 51 58 63 90 44 113
-12 15 -34 15 -71 -1 -27 -11 -23 20 4 39 32 23 94 20 118 -4z"/>
<path d="M962 1668 c-17 -17 -16 -142 2 -157 32 -26 56 8 56 81 0 71 -27 107
-58 76z"/>
<path d="M3580 2816 l0 -55 38 -3 c34 -3 37 -6 37 -33 0 -29 -2 -30 -43 -30
-27 0 -42 -4 -42 -12 0 -27 85 -28 117 -1 18 15 16 73 -3 92 -8 9 -29 16 -45
16 -24 0 -29 4 -29 25 0 23 4 25 40 25 29 0 40 4 40 15 0 12 -13 15 -55 15
l-55 0 0 -54z"/>
<path d="M7843 2700 c-31 -13 -43 -41 -43 -104 0 -43 5 -61 20 -76 26 -26 60
-25 94 1 52 41 20 118 -44 106 -24 -5 -30 -3 -30 11 0 27 20 42 58 42 22 0 32
4 30 13 -5 15 -55 19 -85 7z m52 -135 c0 -25 -4 -30 -25 -30 -16 0 -26 6 -28
18 -6 30 6 49 30 45 18 -2 23 -9 23 -33z"/>
<path d="M1423 2638 c-33 -16 -31 -41 1 -26 65 29 74 -28 16 -95 -59 -67 -55
-77 30 -77 56 0 70 3 70 15 0 11 -12 15 -47 15 l-47 0 31 33 c58 61 68 105 31
131 -26 18 -53 19 -85 4z"/>
<path d="M6413 2110 c-31 -13 -43 -41 -43 -104 0 -43 5 -61 20 -76 26 -26 60
-25 94 1 52 41 20 118 -44 106 -24 -5 -30 -3 -30 11 0 27 20 42 58 42 22 0 32
4 30 13 -5 15 -55 19 -85 7z m52 -135 c0 -25 -4 -30 -25 -30 -16 0 -26 6 -28
18 -6 30 6 49 30 45 18 -2 23 -9 23 -33z"/>
<path d="M4374 2085 c-23 -18 -10 -18 36 0 32 12 33 14 9 14 -14 1 -34 -6 -45
-14z"/>
<path d="M4512 2078 c-1 -16 -11 -37 -22 -48 -14 -14 -16 -20 -6 -20 23 0 38
27 33 62 -3 29 -4 30 -5 6z"/>
<path d="M4393 1983 c9 -2 25 -2 35 0 9 3 1 5 -18 5 -19 0 -27 -2 -17 -5z"/>
<path d="M4520 1954 c0 -41 -27 -64 -87 -74 l-48 -8 48 -1 c41 -1 53 3 78 28
31 31 35 47 19 71 -7 11 -10 8 -10 -16z"/>
<path d="M3562 1124 c-25 -18 -29 -56 -7 -74 14 -12 13 -15 -5 -32 -11 -10
-20 -27 -20 -38 0 -46 93 -67 130 -30 26 26 25 52 0 75 -18 16 -19 20 -5 27
22 13 19 65 -4 78 -28 14 -63 12 -89 -6z m66 -36 c-2 -15 -10 -23 -23 -23 -13
0 -21 8 -23 23 -3 18 1 22 23 22 22 0 26 -4 23 -22z m2 -83 c18 -21 5 -45 -25
-45 -14 0 -28 7 -31 15 -7 17 12 45 31 45 7 0 18 -7 25 -15z"/>
<path d="M5008 1094 c-16 -8 -28 -21 -28 -30 0 -12 4 -12 20 -4 19 10 20 8 20
-60 0 -63 -2 -70 -20 -70 -11 0 -20 -7 -20 -15 0 -13 11 -15 63 -13 59 3 82
19 37 26 -18 3 -20 11 -20 93 0 96 -3 100 -52 73z"/>
<path d="M5161 1091 c-40 -40 -39 -147 2 -176 29 -20 60 -19 88 4 34 27 40
125 9 164 -26 33 -71 36 -99 8z m68 -25 c19 -22 10 -117 -12 -130 -25 -15 -47
16 -47 67 0 65 30 98 59 63z"/>
<path d="M1533 1010 c-31 -13 -43 -41 -43 -104 0 -43 5 -61 20 -76 26 -26 60
-25 94 1 52 41 20 118 -44 106 -24 -5 -30 -3 -30 11 0 27 20 42 58 42 22 0 32
4 30 13 -5 15 -55 19 -85 7z m52 -135 c0 -25 -4 -30 -25 -30 -16 0 -26 6 -28
18 -6 30 6 49 30 45 18 -2 23 -9 23 -33z"/>
<path d="M7523 848 c-33 -16 -31 -41 1 -26 65 29 74 -28 16 -95 -59 -67 -55
-77 30 -77 56 0 70 3 70 15 0 11 -12 15 -47 15 l-47 0 31 33 c58 61 68 105 31
131 -26 18 -53 19 -85 4z"/>
</g>
</svg>
